<svg width="85" height="33" viewBox="0 0 85 33" fill="none" xmlns="http://www.w3.org/2000/svg">
<path d="M39.5415 21H38.1938V10.4531H40.0835L46.4922 17.6968V10.4531H47.8325V21H45.9429L39.5415 13.7637V21ZM58.8335 16.752C58.8335 17.1914 58.7749 17.604 58.6577 17.9897C58.5405 18.3755 58.377 18.7319 58.167 19.0591C57.9619 19.3862 57.7129 19.6816 57.4199 19.9453C57.127 20.2041 56.8047 20.4238 56.4531 20.6045C56.1064 20.7852 55.7329 20.9243 55.3325 21.022C54.937 21.1196 54.5293 21.1685 54.1094 21.1685C53.6895 21.1685 53.2817 21.1196 52.8862 21.022C52.4907 20.9243 52.1172 20.7852 51.7656 20.6045C51.4189 20.4238 51.0991 20.2041 50.8062 19.9453C50.5132 19.6816 50.2617 19.3862 50.0518 19.0591C49.8467 18.7319 49.6855 18.3755 49.5684 17.9897C49.4512 17.5991 49.3926 17.1865 49.3926 16.752C49.3926 16.3174 49.4512 15.9072 49.5684 15.5215C49.6855 15.1309 49.8467 14.772 50.0518 14.4448C50.2617 14.1177 50.5132 13.8247 50.8062 13.5659C51.0991 13.3022 51.4189 13.0801 51.7656 12.8994C52.1172 12.7188 52.4907 12.5796 52.8862 12.4819C53.2817 12.3843 53.6895 12.3354 54.1094 12.3354C54.5293 12.3354 54.937 12.3843 55.3325 12.4819C55.7329 12.5796 56.1064 12.7188 56.4531 12.8994C56.8047 13.0801 57.127 13.3022 57.4199 13.5659C57.7129 13.8247 57.9619 14.1177 58.167 14.4448C58.377 14.772 58.5405 15.1309 58.6577 15.5215C58.7749 15.9072 58.8335 16.3174 58.8335 16.752ZM56.314 16.752C56.314 16.5176 56.2993 16.271 56.27 16.0122C56.2456 15.7485 56.2017 15.4922 56.1382 15.2432C56.0747 14.9893 55.9868 14.7476 55.8745 14.5181C55.7671 14.2837 55.6328 14.0811 55.4717 13.9102C55.3105 13.7344 55.1177 13.5952 54.8931 13.4927C54.6685 13.3853 54.4072 13.3315 54.1094 13.3315C53.8262 13.3315 53.5747 13.3853 53.355 13.4927C53.1353 13.6001 52.9424 13.7441 52.7764 13.9248C52.6152 14.1006 52.4785 14.3057 52.3662 14.54C52.2588 14.7744 52.1709 15.0186 52.1025 15.2725C52.0342 15.5215 51.9854 15.7754 51.9561 16.0342C51.9268 16.2881 51.9121 16.5273 51.9121 16.752C51.9121 16.9766 51.9268 17.2183 51.9561 17.4771C51.9854 17.731 52.0342 17.9849 52.1025 18.2388C52.1709 18.4927 52.2588 18.7368 52.3662 18.9712C52.4785 19.2007 52.6152 19.4058 52.7764 19.5864C52.9424 19.7622 53.1353 19.9038 53.355 20.0112C53.5747 20.1187 53.8262 20.1724 54.1094 20.1724C54.4023 20.1724 54.6611 20.1211 54.8857 20.0186C55.1104 19.9111 55.3032 19.7695 55.4644 19.5938C55.6304 19.418 55.7671 19.2153 55.8745 18.9858C55.9819 18.7563 56.0674 18.5146 56.1309 18.2607C56.1992 18.0068 56.2456 17.7505 56.27 17.4917C56.2993 17.2329 56.314 16.9863 56.314 16.752ZM63.3672 21H60.8843V13.522H59.3462V12.5405H60.8843V9.42773H63.3672V12.5405H65.9307V13.522H63.3672V21ZM68.7358 16.9863C69.0386 17.0547 69.3413 17.1084 69.644 17.1475C69.9468 17.1865 70.252 17.2061 70.5596 17.2061C70.8818 17.2061 71.1797 17.1768 71.4531 17.1182C71.7314 17.0547 71.9707 16.9521 72.1709 16.8105C72.376 16.6641 72.5371 16.4712 72.6543 16.2319C72.7715 15.9927 72.8301 15.6948 72.8301 15.3384C72.8301 15.0503 72.791 14.7866 72.7129 14.5474C72.6348 14.3081 72.5176 14.103 72.3613 13.9321C72.21 13.7612 72.022 13.6294 71.7974 13.5366C71.5728 13.439 71.3115 13.3901 71.0137 13.3901C70.7354 13.3901 70.4839 13.4414 70.2593 13.5439C70.0396 13.6465 69.8442 13.7856 69.6733 13.9614C69.5073 14.1323 69.3633 14.3325 69.2412 14.562C69.124 14.7915 69.0264 15.0308 68.9482 15.2798C68.8701 15.5288 68.814 15.7803 68.7798 16.0342C68.7456 16.2881 68.7285 16.5273 68.7285 16.752C68.7285 16.791 68.7285 16.8301 68.7285 16.8691C68.7285 16.9082 68.731 16.9473 68.7358 16.9863ZM74.8369 15.3164C74.8369 15.6631 74.7808 15.9731 74.6685 16.2466C74.5562 16.5151 74.4023 16.752 74.207 16.957C74.0166 17.1621 73.7944 17.3354 73.5405 17.4771C73.2866 17.6187 73.0156 17.7358 72.7275 17.8286C72.4395 17.9165 72.1416 17.98 71.834 18.019C71.5312 18.0581 71.2358 18.0776 70.9478 18.0776C70.5815 18.0776 70.2202 18.0532 69.8638 18.0044C69.5073 17.9507 69.1558 17.8677 68.8091 17.7554C68.8628 18.0776 68.9482 18.3853 69.0654 18.6782C69.1826 18.9663 69.3389 19.2202 69.5342 19.4399C69.7295 19.6548 69.9688 19.8257 70.252 19.9526C70.54 20.0796 70.8794 20.1431 71.27 20.1431C71.5288 20.1431 71.7754 20.104 72.0098 20.0259C72.2441 19.9478 72.459 19.8379 72.6543 19.6963C72.8496 19.5547 73.0205 19.3862 73.167 19.1909C73.3184 18.9956 73.4404 18.7783 73.5332 18.5391L74.6025 18.9346C74.4414 19.3203 74.2192 19.6548 73.936 19.938C73.6577 20.2163 73.3403 20.4482 72.9839 20.6338C72.6323 20.8145 72.2563 20.9487 71.856 21.0366C71.4604 21.1245 71.0674 21.1685 70.6768 21.1685C70.0322 21.1685 69.4365 21.061 68.8896 20.8462C68.3428 20.6265 67.8716 20.3213 67.4761 19.9307C67.0806 19.54 66.7705 19.0737 66.5459 18.5317C66.3213 17.9897 66.209 17.3965 66.209 16.752C66.209 16.1074 66.3213 15.5142 66.5459 14.9722C66.7705 14.4302 67.0806 13.9639 67.4761 13.5732C67.8716 13.1826 68.3428 12.8799 68.8896 12.665C69.4365 12.4453 70.0322 12.3354 70.6768 12.3354C70.9893 12.3354 71.3091 12.3574 71.6362 12.4014C71.9634 12.4453 72.2808 12.5161 72.5884 12.6138C72.896 12.7065 73.1865 12.8286 73.46 12.98C73.7334 13.1313 73.9702 13.3193 74.1704 13.5439C74.3755 13.7637 74.5366 14.02 74.6538 14.313C74.7759 14.606 74.8369 14.9404 74.8369 15.3164ZM83.6626 18.2974C83.6626 18.6685 83.6089 18.998 83.5015 19.2861C83.394 19.5742 83.2476 19.8257 83.062 20.0405C82.8765 20.2505 82.6567 20.4287 82.4028 20.5752C82.1489 20.7168 81.8755 20.8315 81.5825 20.9194C81.2944 21.0073 80.9917 21.0708 80.6743 21.1099C80.3569 21.1489 80.042 21.1685 79.7295 21.1685C79.3096 21.1685 78.9385 21.1416 78.6162 21.0879C78.2939 21.0342 77.9863 20.9487 77.6934 20.8315C77.4004 20.7095 77.1074 20.5532 76.8145 20.3628C76.5264 20.1724 76.2041 19.9404 75.8477 19.667L77.2905 18.4878C77.4224 18.7368 77.5957 18.9639 77.8105 19.1689C78.0303 19.3691 78.2573 19.5425 78.4917 19.689C78.7261 19.8354 78.9531 19.9478 79.1729 20.0259C79.3926 20.104 79.5708 20.1431 79.7075 20.1431C79.8198 20.1431 79.9468 20.1406 80.0884 20.1357C80.23 20.126 80.374 20.1113 80.5205 20.0918C80.667 20.0674 80.811 20.0332 80.9526 19.9893C81.0942 19.9453 81.2188 19.8867 81.3262 19.8135C81.4385 19.7354 81.5264 19.6401 81.5898 19.5278C81.6582 19.4106 81.6924 19.2715 81.6924 19.1104C81.6924 18.9443 81.6484 18.8003 81.5605 18.6782C81.4775 18.5513 81.3677 18.4414 81.231 18.3486C81.0942 18.2559 80.938 18.1777 80.7622 18.1143C80.5864 18.0508 80.4082 17.9946 80.2275 17.9458C80.0518 17.897 79.8809 17.8555 79.7148 17.8213C79.5488 17.7822 79.4048 17.7456 79.2827 17.7114C79.0581 17.6479 78.8213 17.5845 78.5723 17.521C78.3232 17.4526 78.0767 17.377 77.8325 17.2939C77.5884 17.2061 77.354 17.1035 77.1294 16.9863C76.9097 16.8691 76.7144 16.73 76.5435 16.5688C76.3774 16.4028 76.2432 16.21 76.1406 15.9902C76.043 15.7656 75.9941 15.5044 75.9941 15.2065C75.9941 14.6597 76.1016 14.2031 76.3164 13.8369C76.5361 13.4658 76.8242 13.1704 77.1807 12.9507C77.5371 12.7261 77.9424 12.5674 78.3965 12.4746C78.8506 12.3818 79.312 12.3354 79.7808 12.3354C80.103 12.3354 80.4424 12.3696 80.7988 12.438C81.1553 12.5015 81.502 12.5991 81.8389 12.731C82.1758 12.8579 82.4907 13.0142 82.7837 13.1997C83.0767 13.3853 83.3208 13.5977 83.5161 13.8369L82.0732 15.0234C81.9658 14.7305 81.8242 14.479 81.6484 14.269C81.4775 14.0591 81.2896 13.8882 81.0845 13.7563C80.8843 13.6196 80.6768 13.5195 80.4619 13.4561C80.252 13.3926 80.0566 13.3608 79.876 13.3608C79.7002 13.3608 79.5024 13.3682 79.2827 13.3828C79.063 13.3975 78.8555 13.439 78.6602 13.5073C78.4697 13.5757 78.3062 13.6807 78.1694 13.8223C78.0376 13.959 77.9717 14.1494 77.9717 14.3936C77.9717 14.5693 78.0107 14.7207 78.0889 14.8477C78.1719 14.9697 78.2793 15.0771 78.4111 15.1699C78.543 15.2578 78.6919 15.3335 78.8579 15.397C79.0288 15.4556 79.2021 15.5093 79.3779 15.5581C79.5537 15.6021 79.7246 15.6411 79.8906 15.6753C80.0566 15.7095 80.2056 15.7461 80.3374 15.7852C80.562 15.8486 80.7988 15.9146 81.0479 15.9829C81.3018 16.0464 81.5508 16.1221 81.7949 16.21C82.0391 16.293 82.2734 16.3931 82.498 16.5103C82.7275 16.6226 82.9277 16.7617 83.0986 16.9277C83.2695 17.0938 83.4062 17.2891 83.5088 17.5137C83.6113 17.7334 83.6626 17.9946 83.6626 18.2974Z" fill="#EC7160"/>
<circle cx="16" cy="16" r="16" fill="#EC7160"/>
<path d="M15.4805 8.21484C15.6055 8.75391 15.7305 9.34375 15.8555 9.98438C15.9805 10.625 16.1016 11.293 16.2188 11.9883C16.3438 12.6758 16.4648 13.3789 16.582 14.0977C16.707 14.8086 16.8281 15.5117 16.9453 16.207C17.0703 16.8945 17.1875 17.5625 17.2969 18.2109C17.4141 18.8516 17.5312 19.4453 17.6484 19.9922C18.4375 18.4375 19.1953 16.9648 19.9219 15.5742C20.6562 14.1836 21.3398 12.9375 21.9727 11.8359C22.6055 10.7266 23.1797 9.78516 23.6953 9.01172C24.2109 8.23047 24.6562 7.67188 25.0312 7.33594C25.1953 7.17969 25.3672 7.07031 25.5469 7.00781C25.7266 6.94531 25.9023 6.91406 26.0742 6.91406C26.3242 6.91406 26.5352 6.97656 26.707 7.10156C26.8867 7.22656 26.9766 7.38672 26.9766 7.58203C26.9766 7.69922 26.957 7.79687 26.918 7.875C26.8789 7.95313 26.8164 8.03906 26.7305 8.13281C26.4102 8.5 26.1094 8.83984 25.8281 9.15234C25.5469 9.45703 25.2695 9.78125 24.9961 10.125C24.7305 10.4609 24.4609 10.8398 24.1875 11.2617C23.9219 11.6836 23.6445 12.1875 23.3555 12.7734C23.0039 13.4219 22.6523 14.0898 22.3008 14.7773C21.9492 15.457 21.6094 16.1367 21.2812 16.8164C20.9531 17.4883 20.6367 18.1406 20.332 18.7734C20.0352 19.4062 19.7617 19.9922 19.5117 20.5312C19.2617 21.0625 19.0352 21.5391 18.832 21.9609C18.6289 22.375 18.4609 22.6992 18.3281 22.9336C18.1016 23.418 17.8398 23.7773 17.543 24.0117C17.2539 24.2461 16.9883 24.3672 16.7461 24.375H16.6641C16.5078 24.3672 16.3555 24.3359 16.207 24.2812C16.0586 24.2266 15.9219 24.1445 15.7969 24.0352C15.6719 23.9258 15.5625 23.7891 15.4688 23.625C15.3828 23.4531 15.3242 23.2539 15.293 23.0273C15.168 22.5352 15.0547 22.0547 14.9531 21.5859C14.8594 21.1094 14.7695 20.625 14.6836 20.1328C14.5977 19.6328 14.5078 19.1133 14.4141 18.5742C14.3281 18.0273 14.2344 17.4336 14.1328 16.793C14.0312 16.1523 13.9141 15.4531 13.7812 14.6953C13.6562 13.9375 13.5078 13.0977 13.3359 12.1758C13.1016 12.957 12.8164 13.8164 12.4805 14.7539C12.1445 15.6836 11.7734 16.625 11.3672 17.5781C10.9609 18.5234 10.5234 19.4414 10.0547 20.332C9.58594 21.2148 9.09375 22 8.57812 22.6875C8.0625 23.375 7.53125 23.9258 6.98438 24.3398C6.44531 24.7539 5.90234 24.9609 5.35547 24.9609C5.26172 24.9609 5.15234 24.9375 5.02734 24.8906C4.90234 24.8516 4.78125 24.7891 4.66406 24.7031C4.55469 24.625 4.46094 24.5273 4.38281 24.4102C4.30469 24.293 4.26562 24.1641 4.26562 24.0234C4.26562 23.9141 4.28516 23.8164 4.32422 23.7305C4.37109 23.6367 4.43359 23.5273 4.51172 23.4023C4.61328 23.2383 4.77344 23.0977 4.99219 22.9805C5.21094 22.8555 5.46094 22.7188 5.74219 22.5703C6.03125 22.4219 6.34375 22.25 6.67969 22.0547C7.01562 21.8516 7.35156 21.5859 7.6875 21.2578C7.875 21.0781 8.09766 20.7578 8.35547 20.2969C8.61328 19.8281 8.89062 19.2773 9.1875 18.6445C9.49219 18.0039 9.80469 17.3047 10.125 16.5469C10.4531 15.7812 10.7734 15.0117 11.0859 14.2383C11.3984 13.4648 11.6953 12.7109 11.9766 11.9766C12.2578 11.2344 12.5078 10.5703 12.7266 9.98438C12.9531 9.39062 13.1367 8.89844 13.2773 8.50781C13.418 8.10938 13.5039 7.86719 13.5352 7.78125C13.6133 7.54688 13.7383 7.375 13.9102 7.26562C14.0898 7.15625 14.2812 7.09766 14.4844 7.08984C14.4766 7.08984 14.4688 7.09375 14.4609 7.10156C14.4844 7.10156 14.5078 7.10156 14.5312 7.10156C14.5625 7.09375 14.5898 7.08984 14.6133 7.08984C14.7852 7.08984 14.9531 7.17578 15.1172 7.34766C15.2891 7.51172 15.4102 7.80078 15.4805 8.21484Z" fill="white"/>
</svg>
